<svg width="1160" height="323" viewBox="0 0 1160 323" fill="none" xmlns="http://www.w3.org/2000/svg">
<g filter="url(#filter0_d_4354_11)">
<path d="M323.933 61.9375V158H305.933V61.9375H323.933ZM366.558 90.375L337.183 123.875L321.433 139.812L314.87 126.812L327.37 110.938L344.933 90.375H366.558ZM347.87 158L327.87 126.75L340.308 115.875L368.62 158H347.87ZM406.968 142.75V112.625C406.968 110.458 406.613 108.604 405.905 107.062C405.197 105.479 404.093 104.25 402.593 103.375C401.134 102.5 399.238 102.062 396.905 102.062C394.905 102.062 393.176 102.417 391.718 103.125C390.259 103.792 389.134 104.771 388.343 106.062C387.551 107.312 387.155 108.792 387.155 110.5H369.155C369.155 107.625 369.822 104.896 371.155 102.312C372.488 99.7292 374.426 97.4583 376.968 95.5C379.509 93.5 382.53 91.9375 386.03 90.8125C389.572 89.6875 393.53 89.125 397.905 89.125C403.155 89.125 407.822 90 411.905 91.75C415.988 93.5 419.197 96.125 421.53 99.625C423.905 103.125 425.093 107.5 425.093 112.75V141.688C425.093 145.396 425.322 148.438 425.78 150.812C426.238 153.146 426.905 155.188 427.78 156.938V158H409.593C408.718 156.167 408.051 153.875 407.593 151.125C407.176 148.333 406.968 145.542 406.968 142.75ZM409.343 116.812L409.468 127H399.405C397.03 127 394.968 127.271 393.218 127.812C391.468 128.354 390.03 129.125 388.905 130.125C387.78 131.083 386.947 132.208 386.405 133.5C385.905 134.792 385.655 136.208 385.655 137.75C385.655 139.292 386.009 140.688 386.718 141.938C387.426 143.146 388.447 144.104 389.78 144.812C391.113 145.479 392.676 145.812 394.468 145.812C397.176 145.812 399.53 145.271 401.53 144.188C403.53 143.104 405.072 141.771 406.155 140.188C407.28 138.604 407.863 137.104 407.905 135.688L412.655 143.312C411.988 145.021 411.072 146.792 409.905 148.625C408.78 150.458 407.343 152.188 405.593 153.812C403.843 155.396 401.738 156.708 399.28 157.75C396.822 158.75 393.905 159.25 390.53 159.25C386.238 159.25 382.343 158.396 378.843 156.688C375.384 154.938 372.634 152.542 370.593 149.5C368.593 146.417 367.593 142.917 367.593 139C367.593 135.458 368.259 132.312 369.593 129.562C370.926 126.812 372.884 124.5 375.468 122.625C378.093 120.708 381.363 119.271 385.28 118.312C389.197 117.312 393.738 116.812 398.905 116.812H409.343ZM453.128 105.125V158H435.128V90.375H452.065L453.128 105.125ZM473.503 89.9375L473.19 106.625C472.315 106.5 471.253 106.396 470.003 106.312C468.794 106.188 467.69 106.125 466.69 106.125C464.148 106.125 461.94 106.458 460.065 107.125C458.232 107.75 456.69 108.688 455.44 109.938C454.232 111.188 453.315 112.708 452.69 114.5C452.107 116.292 451.773 118.333 451.69 120.625L448.065 119.5C448.065 115.125 448.503 111.104 449.378 107.438C450.253 103.729 451.523 100.5 453.19 97.75C454.898 95 456.982 92.875 459.44 91.375C461.898 89.875 464.711 89.125 467.878 89.125C468.878 89.125 469.898 89.2083 470.94 89.375C471.982 89.5 472.836 89.6875 473.503 89.9375ZM499.35 150.375L517.288 90.375H536.6L509.413 168.188C508.829 169.896 508.038 171.729 507.038 173.688C506.079 175.646 504.767 177.5 503.1 179.25C501.475 181.042 499.413 182.5 496.913 183.625C494.454 184.75 491.433 185.312 487.85 185.312C486.142 185.312 484.746 185.208 483.663 185C482.579 184.792 481.288 184.5 479.788 184.125V170.938C480.246 170.938 480.725 170.938 481.225 170.938C481.725 170.979 482.204 171 482.663 171C485.038 171 486.975 170.729 488.475 170.188C489.975 169.646 491.183 168.812 492.1 167.688C493.017 166.604 493.746 165.188 494.288 163.438L499.35 150.375ZM491.85 90.375L506.538 139.375L509.1 158.438L496.85 159.75L472.538 90.375H491.85ZM575.448 142.75V112.625C575.448 110.458 575.093 108.604 574.385 107.062C573.677 105.479 572.573 104.25 571.073 103.375C569.614 102.5 567.718 102.062 565.385 102.062C563.385 102.062 561.656 102.417 560.198 103.125C558.739 103.792 557.614 104.771 556.823 106.062C556.031 107.312 555.635 108.792 555.635 110.5H537.635C537.635 107.625 538.302 104.896 539.635 102.312C540.968 99.7292 542.906 97.4583 545.448 95.5C547.989 93.5 551.01 91.9375 554.51 90.8125C558.052 89.6875 562.01 89.125 566.385 89.125C571.635 89.125 576.302 90 580.385 91.75C584.468 93.5 587.677 96.125 590.01 99.625C592.385 103.125 593.573 107.5 593.573 112.75V141.688C593.573 145.396 593.802 148.438 594.26 150.812C594.718 153.146 595.385 155.188 596.26 156.938V158H578.073C577.198 156.167 576.531 153.875 576.073 151.125C575.656 148.333 575.448 145.542 575.448 142.75ZM577.823 116.812L577.948 127H567.885C565.51 127 563.448 127.271 561.698 127.812C559.948 128.354 558.51 129.125 557.385 130.125C556.26 131.083 555.427 132.208 554.885 133.5C554.385 134.792 554.135 136.208 554.135 137.75C554.135 139.292 554.489 140.688 555.198 141.938C555.906 143.146 556.927 144.104 558.26 144.812C559.593 145.479 561.156 145.812 562.948 145.812C565.656 145.812 568.01 145.271 570.01 144.188C572.01 143.104 573.552 141.771 574.635 140.188C575.76 138.604 576.343 137.104 576.385 135.688L581.135 143.312C580.468 145.021 579.552 146.792 578.385 148.625C577.26 150.458 575.823 152.188 574.073 153.812C572.323 155.396 570.218 156.708 567.76 157.75C565.302 158.75 562.385 159.25 559.01 159.25C554.718 159.25 550.823 158.396 547.323 156.688C543.864 154.938 541.114 152.542 539.073 149.5C537.073 146.417 536.073 142.917 536.073 139C536.073 135.458 536.739 132.312 538.073 129.562C539.406 126.812 541.364 124.5 543.948 122.625C546.573 120.708 549.843 119.271 553.76 118.312C557.677 117.312 562.218 116.812 567.385 116.812H577.823ZM631.643 62H649.643V142.5L647.83 158H631.643V62ZM692.455 123.5V124.812C692.455 129.854 691.913 134.479 690.83 138.688C689.788 142.896 688.163 146.542 685.955 149.625C683.747 152.667 680.997 155.042 677.705 156.75C674.455 158.417 670.622 159.25 666.205 159.25C662.08 159.25 658.497 158.417 655.455 156.75C652.455 155.083 649.934 152.729 647.893 149.688C645.851 146.646 644.205 143.083 642.955 139C641.705 134.917 640.768 130.458 640.143 125.625V122.75C640.768 117.917 641.705 113.458 642.955 109.375C644.205 105.292 645.851 101.729 647.893 98.6875C649.934 95.6458 652.455 93.2917 655.455 91.625C658.455 89.9583 661.997 89.125 666.08 89.125C670.538 89.125 674.413 89.9792 677.705 91.6875C681.038 93.3542 683.788 95.7292 685.955 98.8125C688.163 101.854 689.788 105.479 690.83 109.688C691.913 113.854 692.455 118.458 692.455 123.5ZM674.455 124.812V123.5C674.455 120.75 674.247 118.167 673.83 115.75C673.455 113.292 672.788 111.146 671.83 109.312C670.872 107.438 669.559 105.958 667.893 104.875C666.268 103.792 664.163 103.25 661.58 103.25C659.122 103.25 657.038 103.667 655.33 104.5C653.622 105.333 652.205 106.5 651.08 108C649.997 109.5 649.184 111.292 648.643 113.375C648.101 115.417 647.768 117.667 647.643 120.125V128.312C647.768 131.604 648.309 134.521 649.268 137.062C650.268 139.562 651.768 141.542 653.768 143C655.809 144.417 658.455 145.125 661.705 145.125C664.247 145.125 666.351 144.625 668.018 143.625C669.684 142.625 670.976 141.208 671.893 139.375C672.851 137.542 673.518 135.396 673.893 132.938C674.268 130.438 674.455 127.729 674.455 124.812ZM719.115 150.375L737.053 90.375H756.365L729.178 168.188C728.594 169.896 727.803 171.729 726.803 173.688C725.844 175.646 724.532 177.5 722.865 179.25C721.24 181.042 719.178 182.5 716.678 183.625C714.219 184.75 711.198 185.312 707.615 185.312C705.907 185.312 704.511 185.208 703.428 185C702.344 184.792 701.053 184.5 699.553 184.125V170.938C700.011 170.938 700.49 170.938 700.99 170.938C701.49 170.979 701.969 171 702.428 171C704.803 171 706.74 170.729 708.24 170.188C709.74 169.646 710.948 168.812 711.865 167.688C712.782 166.604 713.511 165.188 714.053 163.438L719.115 150.375ZM711.615 90.375L726.303 139.375L728.865 158.438L716.615 159.75L692.303 90.375H711.615ZM173.14 242.812H191.828C191.453 248.938 189.765 254.375 186.765 259.125C183.807 263.875 179.661 267.583 174.328 270.25C169.036 272.917 162.661 274.25 155.203 274.25C149.369 274.25 144.14 273.25 139.515 271.25C134.89 269.208 130.932 266.292 127.64 262.5C124.39 258.708 121.911 254.125 120.203 248.75C118.494 243.375 117.64 237.354 117.64 230.688V224.375C117.64 217.708 118.515 211.688 120.265 206.312C122.057 200.896 124.598 196.292 127.89 192.5C131.223 188.708 135.203 185.792 139.828 183.75C144.453 181.708 149.619 180.688 155.328 180.688C162.911 180.688 169.307 182.062 174.515 184.812C179.765 187.562 183.828 191.354 186.703 196.188C189.619 201.021 191.369 206.521 191.953 212.688H173.203C172.994 209.021 172.265 205.917 171.015 203.375C169.765 200.792 167.869 198.854 165.328 197.562C162.828 196.229 159.494 195.562 155.328 195.562C152.203 195.562 149.473 196.146 147.14 197.312C144.807 198.479 142.848 200.25 141.265 202.625C139.682 205 138.494 208 137.703 211.625C136.953 215.208 136.578 219.417 136.578 224.25V230.688C136.578 235.396 136.932 239.542 137.64 243.125C138.348 246.667 139.432 249.667 140.89 252.125C142.39 254.542 144.307 256.375 146.64 257.625C149.015 258.833 151.869 259.438 155.203 259.438C159.119 259.438 162.348 258.812 164.89 257.562C167.432 256.312 169.369 254.458 170.703 252C172.078 249.542 172.89 246.479 173.14 242.812ZM196.3 239.875V238.562C196.3 233.604 197.008 229.042 198.425 224.875C199.842 220.667 201.904 217.021 204.613 213.938C207.321 210.854 210.654 208.458 214.613 206.75C218.571 205 223.113 204.125 228.238 204.125C233.363 204.125 237.925 205 241.925 206.75C245.925 208.458 249.279 210.854 251.988 213.938C254.738 217.021 256.821 220.667 258.238 224.875C259.654 229.042 260.363 233.604 260.363 238.562V239.875C260.363 244.792 259.654 249.354 258.238 253.562C256.821 257.729 254.738 261.375 251.988 264.5C249.279 267.583 245.946 269.979 241.988 271.688C238.029 273.396 233.488 274.25 228.363 274.25C223.238 274.25 218.675 273.396 214.675 271.688C210.717 269.979 207.363 267.583 204.613 264.5C201.904 261.375 199.842 257.729 198.425 253.562C197.008 249.354 196.3 244.792 196.3 239.875ZM214.3 238.562V239.875C214.3 242.708 214.55 245.354 215.05 247.812C215.55 250.271 216.342 252.438 217.425 254.312C218.55 256.146 220.008 257.583 221.8 258.625C223.592 259.667 225.779 260.188 228.363 260.188C230.863 260.188 233.008 259.667 234.8 258.625C236.592 257.583 238.029 256.146 239.113 254.312C240.196 252.438 240.988 250.271 241.488 247.812C242.029 245.354 242.3 242.708 242.3 239.875V238.562C242.3 235.812 242.029 233.229 241.488 230.812C240.988 228.354 240.175 226.188 239.05 224.312C237.967 222.396 236.529 220.896 234.738 219.812C232.946 218.729 230.779 218.188 228.238 218.188C225.696 218.188 223.529 218.729 221.738 219.812C219.988 220.896 218.55 222.396 217.425 224.312C216.342 226.188 215.55 228.354 215.05 230.812C214.55 233.229 214.3 235.812 214.3 238.562ZM307.523 258.25V177H325.648V273H309.335L307.523 258.25ZM264.773 240V238.688C264.773 233.521 265.356 228.833 266.523 224.625C267.689 220.375 269.398 216.729 271.648 213.688C273.898 210.646 276.668 208.292 279.96 206.625C283.252 204.958 287.002 204.125 291.21 204.125C295.168 204.125 298.627 204.958 301.585 206.625C304.585 208.292 307.127 210.667 309.21 213.75C311.335 216.792 313.043 220.396 314.335 224.562C315.627 228.688 316.564 233.208 317.148 238.125V241C316.564 245.708 315.627 250.083 314.335 254.125C313.043 258.167 311.335 261.708 309.21 264.75C307.127 267.75 304.585 270.083 301.585 271.75C298.585 273.417 295.085 274.25 291.085 274.25C286.877 274.25 283.127 273.396 279.835 271.688C276.585 269.979 273.835 267.583 271.585 264.5C269.377 261.417 267.689 257.792 266.523 253.625C265.356 249.458 264.773 244.917 264.773 240ZM282.773 238.688V240C282.773 242.792 282.981 245.396 283.398 247.812C283.856 250.229 284.585 252.375 285.585 254.25C286.627 256.083 287.96 257.521 289.585 258.562C291.252 259.562 293.273 260.062 295.648 260.062C298.731 260.062 301.273 259.375 303.273 258C305.273 256.583 306.793 254.646 307.835 252.188C308.918 249.729 309.543 246.896 309.71 243.688V235.5C309.585 232.875 309.21 230.521 308.585 228.438C308.002 226.312 307.127 224.5 305.96 223C304.835 221.5 303.418 220.333 301.71 219.5C300.043 218.667 298.064 218.25 295.773 218.25C293.439 218.25 291.439 218.792 289.773 219.875C288.106 220.917 286.752 222.354 285.71 224.188C284.71 226.021 283.96 228.188 283.46 230.688C283.002 233.146 282.773 235.812 282.773 238.688ZM366.995 274.25C361.745 274.25 357.037 273.417 352.87 271.75C348.703 270.042 345.162 267.688 342.245 264.688C339.37 261.688 337.162 258.208 335.62 254.25C334.078 250.25 333.308 246 333.308 241.5V239C333.308 233.875 334.037 229.188 335.495 224.938C336.953 220.688 339.037 217 341.745 213.875C344.495 210.75 347.828 208.354 351.745 206.688C355.662 204.979 360.078 204.125 364.995 204.125C369.787 204.125 374.037 204.917 377.745 206.5C381.453 208.083 384.558 210.333 387.058 213.25C389.599 216.167 391.516 219.667 392.808 223.75C394.099 227.792 394.745 232.292 394.745 237.25V244.75H340.995V232.75H377.058V231.375C377.058 228.875 376.599 226.646 375.683 224.688C374.808 222.688 373.474 221.104 371.683 219.938C369.891 218.771 367.599 218.188 364.808 218.188C362.433 218.188 360.391 218.708 358.683 219.75C356.974 220.792 355.578 222.25 354.495 224.125C353.453 226 352.662 228.208 352.12 230.75C351.62 233.25 351.37 236 351.37 239V241.5C351.37 244.208 351.745 246.708 352.495 249C353.287 251.292 354.391 253.271 355.808 254.938C357.266 256.604 359.016 257.896 361.058 258.812C363.141 259.729 365.495 260.188 368.12 260.188C371.37 260.188 374.391 259.562 377.183 258.312C380.016 257.021 382.453 255.083 384.495 252.5L393.245 262C391.828 264.042 389.891 266 387.433 267.875C385.016 269.75 382.099 271.292 378.683 272.5C375.266 273.667 371.37 274.25 366.995 274.25ZM423.28 259.875L438.28 205.375H457.093L434.28 273H422.905L423.28 259.875ZM412.968 205.375L428.03 259.938L428.343 273H416.905L394.093 205.375H412.968ZM491.565 274.25C486.315 274.25 481.607 273.417 477.44 271.75C473.273 270.042 469.732 267.688 466.815 264.688C463.94 261.688 461.732 258.208 460.19 254.25C458.648 250.25 457.878 246 457.878 241.5V239C457.878 233.875 458.607 229.188 460.065 224.938C461.523 220.688 463.607 217 466.315 213.875C469.065 210.75 472.398 208.354 476.315 206.688C480.232 204.979 484.648 204.125 489.565 204.125C494.357 204.125 498.607 204.917 502.315 206.5C506.023 208.083 509.128 210.333 511.628 213.25C514.169 216.167 516.086 219.667 517.378 223.75C518.669 227.792 519.315 232.292 519.315 237.25V244.75H465.565V232.75H501.628V231.375C501.628 228.875 501.169 226.646 500.253 224.688C499.378 222.688 498.044 221.104 496.253 219.938C494.461 218.771 492.169 218.188 489.378 218.188C487.003 218.188 484.961 218.708 483.253 219.75C481.544 220.792 480.148 222.25 479.065 224.125C478.023 226 477.232 228.208 476.69 230.75C476.19 233.25 475.94 236 475.94 239V241.5C475.94 244.208 476.315 246.708 477.065 249C477.857 251.292 478.961 253.271 480.378 254.938C481.836 256.604 483.586 257.896 485.628 258.812C487.711 259.729 490.065 260.188 492.69 260.188C495.94 260.188 498.961 259.562 501.753 258.312C504.586 257.021 507.023 255.083 509.065 252.5L517.815 262C516.398 264.042 514.461 266 512.003 267.875C509.586 269.75 506.669 271.292 503.253 272.5C499.836 273.667 495.94 274.25 491.565 274.25ZM565.663 258.25V177H583.788V273H567.475L565.663 258.25ZM522.913 240V238.688C522.913 233.521 523.496 228.833 524.663 224.625C525.829 220.375 527.538 216.729 529.788 213.688C532.038 210.646 534.808 208.292 538.1 206.625C541.392 204.958 545.142 204.125 549.35 204.125C553.308 204.125 556.767 204.958 559.725 206.625C562.725 208.292 565.267 210.667 567.35 213.75C569.475 216.792 571.183 220.396 572.475 224.562C573.767 228.688 574.704 233.208 575.288 238.125V241C574.704 245.708 573.767 250.083 572.475 254.125C571.183 258.167 569.475 261.708 567.35 264.75C565.267 267.75 562.725 270.083 559.725 271.75C556.725 273.417 553.225 274.25 549.225 274.25C545.017 274.25 541.267 273.396 537.975 271.688C534.725 269.979 531.975 267.583 529.725 264.5C527.517 261.417 525.829 257.792 524.663 253.625C523.496 249.458 522.913 244.917 522.913 240ZM540.913 238.688V240C540.913 242.792 541.121 245.396 541.538 247.812C541.996 250.229 542.725 252.375 543.725 254.25C544.767 256.083 546.1 257.521 547.725 258.562C549.392 259.562 551.413 260.062 553.788 260.062C556.871 260.062 559.413 259.375 561.413 258C563.413 256.583 564.933 254.646 565.975 252.188C567.058 249.729 567.683 246.896 567.85 243.688V235.5C567.725 232.875 567.35 230.521 566.725 228.438C566.142 226.312 565.267 224.5 564.1 223C562.975 221.5 561.558 220.333 559.85 219.5C558.183 218.667 556.204 218.25 553.913 218.25C551.579 218.25 549.579 218.792 547.913 219.875C546.246 220.917 544.892 222.354 543.85 224.188C542.85 226.021 542.1 228.188 541.6 230.688C541.142 233.146 540.913 235.812 540.913 238.688ZM630.51 257.75V227.625C630.51 225.458 630.156 223.604 629.448 222.062C628.739 220.479 627.635 219.25 626.135 218.375C624.677 217.5 622.781 217.062 620.448 217.062C618.448 217.062 616.718 217.417 615.26 218.125C613.802 218.792 612.677 219.771 611.885 221.062C611.093 222.312 610.698 223.792 610.698 225.5H592.698C592.698 222.625 593.364 219.896 594.698 217.312C596.031 214.729 597.968 212.458 600.51 210.5C603.052 208.5 606.073 206.938 609.573 205.812C613.114 204.688 617.073 204.125 621.448 204.125C626.698 204.125 631.364 205 635.448 206.75C639.531 208.5 642.739 211.125 645.073 214.625C647.448 218.125 648.635 222.5 648.635 227.75V256.688C648.635 260.396 648.864 263.438 649.323 265.812C649.781 268.146 650.448 270.188 651.323 271.938V273H633.135C632.26 271.167 631.593 268.875 631.135 266.125C630.718 263.333 630.51 260.542 630.51 257.75ZM632.885 231.812L633.01 242H622.948C620.573 242 618.51 242.271 616.76 242.812C615.01 243.354 613.573 244.125 612.448 245.125C611.323 246.083 610.489 247.208 609.948 248.5C609.448 249.792 609.198 251.208 609.198 252.75C609.198 254.292 609.552 255.688 610.26 256.938C610.968 258.146 611.989 259.104 613.323 259.812C614.656 260.479 616.218 260.812 618.01 260.812C620.718 260.812 623.073 260.271 625.073 259.188C627.073 258.104 628.614 256.771 629.698 255.188C630.823 253.604 631.406 252.104 631.448 250.688L636.198 258.312C635.531 260.021 634.614 261.792 633.448 263.625C632.323 265.458 630.885 267.188 629.135 268.812C627.385 270.396 625.281 271.708 622.823 272.75C620.364 273.75 617.448 274.25 614.073 274.25C609.781 274.25 605.885 273.396 602.385 271.688C598.927 269.938 596.177 267.542 594.135 264.5C592.135 261.417 591.135 257.917 591.135 254C591.135 250.458 591.802 247.312 593.135 244.562C594.468 241.812 596.427 239.5 599.01 237.625C601.635 235.708 604.906 234.271 608.823 233.312C612.739 232.312 617.281 231.812 622.448 231.812H632.885ZM695.233 254.312C695.233 253.021 694.858 251.854 694.108 250.812C693.358 249.771 691.962 248.812 689.92 247.938C687.92 247.021 685.024 246.188 681.233 245.438C677.816 244.688 674.628 243.75 671.67 242.625C668.753 241.458 666.212 240.062 664.045 238.438C661.92 236.812 660.253 234.896 659.045 232.688C657.837 230.438 657.233 227.875 657.233 225C657.233 222.167 657.837 219.5 659.045 217C660.295 214.5 662.066 212.292 664.358 210.375C666.691 208.417 669.524 206.896 672.858 205.812C676.233 204.688 680.024 204.125 684.233 204.125C690.108 204.125 695.149 205.062 699.358 206.938C703.608 208.812 706.858 211.396 709.108 214.688C711.399 217.938 712.545 221.646 712.545 225.812H694.545C694.545 224.062 694.17 222.5 693.42 221.125C692.712 219.708 691.587 218.604 690.045 217.812C688.545 216.979 686.587 216.562 684.17 216.562C682.17 216.562 680.441 216.917 678.983 217.625C677.524 218.292 676.399 219.208 675.608 220.375C674.858 221.5 674.483 222.75 674.483 224.125C674.483 225.167 674.691 226.104 675.108 226.938C675.566 227.729 676.295 228.458 677.295 229.125C678.295 229.792 679.587 230.417 681.17 231C682.795 231.542 684.795 232.042 687.17 232.5C692.045 233.5 696.399 234.812 700.233 236.438C704.066 238.021 707.108 240.188 709.358 242.938C711.608 245.646 712.733 249.208 712.733 253.625C712.733 256.625 712.066 259.375 710.733 261.875C709.399 264.375 707.483 266.562 704.983 268.438C702.483 270.271 699.483 271.708 695.983 272.75C692.524 273.75 688.628 274.25 684.295 274.25C678.003 274.25 672.67 273.125 668.295 270.875C663.962 268.625 660.67 265.771 658.42 262.312C656.212 258.812 655.108 255.229 655.108 251.562H672.17C672.253 254.021 672.878 256 674.045 257.5C675.253 259 676.774 260.083 678.608 260.75C680.483 261.417 682.503 261.75 684.67 261.75C687.003 261.75 688.941 261.438 690.483 260.812C692.024 260.146 693.191 259.271 693.983 258.188C694.816 257.062 695.233 255.771 695.233 254.312ZM769.678 182V273H750.99V182H769.678ZM799.9 219.812V273H781.9V205.375H798.775L799.9 219.812ZM797.275 236.812H792.4C792.4 231.812 793.046 227.312 794.338 223.312C795.629 219.271 797.442 215.833 799.775 213C802.108 210.125 804.879 207.938 808.088 206.438C811.338 204.896 814.963 204.125 818.963 204.125C822.129 204.125 825.025 204.583 827.65 205.5C830.275 206.417 832.525 207.875 834.4 209.875C836.317 211.875 837.775 214.521 838.775 217.812C839.817 221.104 840.338 225.125 840.338 229.875V273H822.213V229.812C822.213 226.812 821.796 224.479 820.963 222.812C820.129 221.146 818.9 219.979 817.275 219.312C815.692 218.604 813.733 218.25 811.4 218.25C808.983 218.25 806.879 218.729 805.088 219.688C803.338 220.646 801.879 221.979 800.713 223.688C799.588 225.354 798.733 227.312 798.15 229.562C797.567 231.812 797.275 234.229 797.275 236.812ZM878.123 260.188C880.331 260.188 882.289 259.771 883.998 258.938C885.706 258.062 887.039 256.854 887.998 255.312C888.998 253.729 889.518 251.875 889.56 249.75H906.498C906.456 254.5 905.185 258.729 902.685 262.438C900.185 266.104 896.831 269 892.623 271.125C888.414 273.208 883.706 274.25 878.498 274.25C873.248 274.25 868.664 273.375 864.748 271.625C860.873 269.875 857.643 267.458 855.06 264.375C852.477 261.25 850.539 257.625 849.248 253.5C847.956 249.333 847.31 244.875 847.31 240.125V238.312C847.31 233.521 847.956 229.062 849.248 224.938C850.539 220.771 852.477 217.146 855.06 214.062C857.643 210.938 860.873 208.5 864.748 206.75C868.623 205 873.164 204.125 878.373 204.125C883.914 204.125 888.768 205.188 892.935 207.312C897.143 209.438 900.435 212.479 902.81 216.438C905.227 220.354 906.456 225 906.498 230.375H889.56C889.518 228.125 889.039 226.083 888.123 224.25C887.248 222.417 885.956 220.958 884.248 219.875C882.581 218.75 880.518 218.188 878.06 218.188C875.435 218.188 873.289 218.75 871.623 219.875C869.956 220.958 868.664 222.458 867.748 224.375C866.831 226.25 866.185 228.396 865.81 230.812C865.477 233.188 865.31 235.688 865.31 238.312V240.125C865.31 242.75 865.477 245.271 865.81 247.688C866.143 250.104 866.768 252.25 867.685 254.125C868.643 256 869.956 257.479 871.623 258.562C873.289 259.646 875.456 260.188 878.123 260.188ZM913.97 264.312C913.97 261.646 914.887 259.417 916.72 257.625C918.595 255.833 921.074 254.938 924.158 254.938C927.241 254.938 929.699 255.833 931.533 257.625C933.408 259.417 934.345 261.646 934.345 264.312C934.345 266.979 933.408 269.208 931.533 271C929.699 272.792 927.241 273.688 924.158 273.688C921.074 273.688 918.595 272.792 916.72 271C914.887 269.208 913.97 266.979 913.97 264.312Z" fill="#FB8C00"/>
</g>
<g filter="url(#filter1_d_4354_11)">
<path d="M1089.3 154.186L960.202 8.31364C957.346 5.08674 959.637 0 963.946 0H1009.09C1010.47 0 1011.8 0.577387 1012.75 1.59389L1154.65 154.094C1156.44 156.013 1156.44 158.987 1154.65 160.906L1012.75 313.406C1011.8 314.423 1010.47 315 1009.09 315H963.946C959.637 315 957.346 309.913 960.202 306.686L1089.3 160.814C1090.97 158.922 1090.97 156.078 1089.3 154.186Z" fill="#FB8C00"/>
</g>
<defs>
<filter id="filter0_d_4354_11" x="113.64" y="61.9375" width="824.705" height="220.312" filterUnits="userSpaceOnUse" color-interpolation-filters="sRGB">
<feFlood flood-opacity="0" result="BackgroundImageFix"/>
<feColorMatrix in="SourceAlpha" type="matrix" values="0 0 0 0 0 0 0 0 0 0 0 0 0 0 0 0 0 0 127 0" result="hardAlpha"/>
<feOffset dy="4"/>
<feGaussianBlur stdDeviation="2"/>
<feComposite in2="hardAlpha" operator="out"/>
<feColorMatrix type="matrix" values="0 0 0 0 0 0 0 0 0 0 0 0 0 0 0 0 0 0 0.25 0"/>
<feBlend mode="normal" in2="BackgroundImageFix" result="effect1_dropShadow_4354_11"/>
<feBlend mode="normal" in="SourceGraphic" in2="effect1_dropShadow_4354_11" result="shape"/>
</filter>
<filter id="filter1_d_4354_11" x="954.936" y="0" width="205.056" height="323" filterUnits="userSpaceOnUse" color-interpolation-filters="sRGB">
<feFlood flood-opacity="0" result="BackgroundImageFix"/>
<feColorMatrix in="SourceAlpha" type="matrix" values="0 0 0 0 0 0 0 0 0 0 0 0 0 0 0 0 0 0 127 0" result="hardAlpha"/>
<feOffset dy="4"/>
<feGaussianBlur stdDeviation="2"/>
<feComposite in2="hardAlpha" operator="out"/>
<feColorMatrix type="matrix" values="0 0 0 0 0 0 0 0 0 0 0 0 0 0 0 0 0 0 0.25 0"/>
<feBlend mode="normal" in2="BackgroundImageFix" result="effect1_dropShadow_4354_11"/>
<feBlend mode="normal" in="SourceGraphic" in2="effect1_dropShadow_4354_11" result="shape"/>
</filter>
</defs>
</svg>
